<svg xmlns="http://www.w3.org/2000/svg" width="23" height="22" viewBox="0 0 23 22" fill="none">
  <path d="M21.1116 8.41243C21.054 8.24262 20.9479 8.09341 20.8064 7.98322C20.6649 7.87303 20.4942 7.80669 20.3155 7.79238L15.0863 7.37688L12.8235 2.36786C12.7514 2.20653 12.6342 2.0695 12.486 1.97332C12.3378 1.87714 12.1649 1.8259 11.9882 1.82581C11.8115 1.82571 11.6386 1.87675 11.4902 1.97277C11.3419 2.0688 11.2245 2.20569 11.1523 2.36694L8.88948 7.37688L3.66033 7.79238C3.48464 7.8063 3.31668 7.87054 3.17654 7.97742C3.0364 8.08429 2.93002 8.22928 2.87013 8.39503C2.81023 8.56079 2.79936 8.74028 2.83881 8.91205C2.87826 9.08383 2.96635 9.24059 3.09257 9.36361L6.95687 13.1307L5.59019 19.0487C5.5487 19.2278 5.562 19.4153 5.62837 19.5868C5.69474 19.7583 5.81112 19.9058 5.96241 20.0103C6.1137 20.1149 6.2929 20.1715 6.47678 20.1729C6.66065 20.1743 6.8407 20.1204 6.99356 20.0182L11.9879 16.6886L16.9822 20.0182C17.1385 20.1219 17.3227 20.1753 17.5102 20.1712C17.6977 20.1671 17.8795 20.1057 18.031 19.9952C18.1825 19.8847 18.2966 19.7305 18.3579 19.5532C18.4191 19.376 18.4247 19.1842 18.3737 19.0037L16.6961 13.1334L20.8566 9.38929C21.1291 9.14347 21.229 8.76007 21.1116 8.41243Z" fill="#F3CD03"/>
</svg>